<?xml version="1.0" standalone="no"?>
<!DOCTYPE svg PUBLIC "-//W3C//DTD SVG 20010904//EN"
 "http://www.w3.org/TR/2001/REC-SVG-20010904/DTD/svg10.dtd">
<svg version="1.0" xmlns="http://www.w3.org/2000/svg"
 width="700.000000pt" height="700.000000pt" viewBox="0 0 700.000000 700.000000"
 preserveAspectRatio="xMidYMid meet">
<metadata>
Created by potrace 1.11, written by Peter Selinger 2001-2013
</metadata>
<g transform="translate(0.000000,700.000000) scale(0.100000,-0.100000)"
fill="#000000" stroke="none">
<path d="M70 4575 l0 -2355 1503 -2 1504 -3 -584 -933 c-320 -514 -583 -937
-583 -940 1 -13 223 -143 229 -134 3 5 276 441 605 968 329 527 605 966 612
974 12 12 14 -103 14 -733 l0 -747 130 0 130 0 0 747 c0 630 2 745 14 733 7
-8 283 -447 612 -974 329 -527 602 -963 605 -968 6 -9 228 121 229 134 0 3
-263 426 -583 940 l-584 933 1504 3 1503 2 0 2355 0 2355 -3430 0 -3430 0 0
-2355z m6460 -265 l0 -1680 -3030 0 -3030 0 0 1680 0 1680 3030 0 3030 0 0
-1680z"/>
<path d="M2880 4304 l0 -896 43 32 c23 17 302 218 619 448 541 390 577 418
560 433 -20 20 -1211 879 -1218 879 -2 0 -4 -403 -4 -896z"/>
</g>
</svg>
